<svg xmlns="http://www.w3.org/2000/svg" viewBox="0 0 512 512" width="512" height="512">
  <defs>
    <linearGradient id="bgGrad" x1="0%" y1="0%" x2="100%" y2="100%">
      <stop offset="0%" stop-color="#4f46e5" />
      <stop offset="100%" stop-color="#312e81" />
    </linearGradient>
    <linearGradient id="glowGrad" x1="0%" y1="0%" x2="0%" y2="100%">
      <stop offset="0%" stop-color="#818cf8" stop-opacity="0.6" />
      <stop offset="100%" stop-color="#4338ca" stop-opacity="0" />
    </linearGradient>
    <filter id="shadow" x="-20%" y="-20%" width="140%" height="140%">
      <feDropShadow dx="0" dy="16" stdDeviation="24" flood-color="#000000" flood-opacity="0.4" />
    </filter>
  </defs>
  
  <!-- App Icon Base -->
  <rect x="32" y="32" width="448" height="448" rx="100" fill="url(#bgGrad)" filter="url(#shadow)" />
  <rect x="32" y="32" width="448" height="448" rx="100" fill="none" stroke="rgba(255,255,255,0.15)" stroke-width="4" />
  
  <!-- Subtle Header Bar -->
  <path d="M32 132 Q32 32 132 32 L380 32 Q480 32 480 132 L480 140 L32 140 Z" fill="url(#glowGrad)" />
  
  <!-- Markdown "M" and Down Arrow Symbol -->
  <!-- M Symbol -->
  <path d="M120 330 V182 H164 L220 256 L276 182 H320 V330 H278 V246 L226 312 H214 L162 246 V330 Z" fill="#ffffff" />
  
  <!-- Down Arrow -->
  <path d="M380 182 H416 V270 H450 L398 332 L346 270 H380 Z" fill="#38bdf8" />
  
  <!-- Modern Accent Dot -->
  <circle cx="430" cy="150" r="14" fill="#a855f7" />
</svg>